<svg xmlns="http://www.w3.org/2000/svg" xmlns:xlink="http://www.w3.org/1999/xlink" width="500" zoomAndPan="magnify" viewBox="0 0 375 374.999991" height="500" preserveAspectRatio="xMidYMid meet" version="1.2"><defs/><g id="545b909d94"><g style="fill:#ffffff;fill-opacity:1;"><g transform="translate(15.911486, 294.104388)"><path style="stroke:none" d="M -3.652344 -2.917969 L 56.632812 -226.660156 L 124.453125 -226.660156 L 186.898438 11.222656 L 124.882812 11.222656 L 109.96875 -51.566406 L 120.886719 -54.160156 L 120.886719 -42.9375 L 58.347656 -42.9375 L 58.347656 -54.160156 L 69.265625 -51.566406 L 54.351562 11.222656 L -7.464844 11.222656 Z M 18.015625 2.917969 L 7.179688 0 L 7.179688 -11.222656 L 45.480469 -11.222656 L 45.480469 0 L 34.5625 -2.59375 L 49.480469 -65.378906 L 129.753906 -65.378906 L 144.667969 -2.59375 L 133.753906 0 L 133.753906 -11.222656 L 172.351562 -11.222656 L 172.351562 0 L 161.496094 2.847656 L 104.945312 -212.589844 L 115.796875 -215.441406 L 115.796875 -204.21875 L 65.230469 -204.21875 L 65.230469 -215.441406 L 76.066406 -212.519531 Z M 65.53125 -95.003906 L 113.703125 -95.003906 L 113.703125 -83.78125 L 102.785156 -81.191406 L 84.535156 -158.089844 C 83.691406 -161.882812 82.910156 -165.625 82.191406 -169.3125 C 81.457031 -173.085938 80.878906 -176.464844 80.453125 -179.441406 L 79.230469 -189.210938 L 90.363281 -190.605469 L 90.363281 -179.382812 L 88.867188 -179.382812 L 88.867188 -190.605469 L 100.003906 -189.210938 L 98.808594 -179.636719 C 98.378906 -176.628906 97.859375 -173.285156 97.246094 -169.609375 C 96.582031 -165.628906 95.699219 -161.652344 94.59375 -157.679688 L 83.78125 -160.683594 L 94.699219 -158.089844 L 76.449219 -81.191406 L 65.53125 -83.78125 Z M 51.332031 -72.5625 L 72.914062 -163.480469 L 72.96875 -163.683594 C 73.863281 -166.894531 74.574219 -170.097656 75.105469 -173.300781 C 75.691406 -176.804688 76.167969 -179.84375 76.539062 -182.421875 L 78.960938 -201.824219 L 100.269531 -201.824219 L 102.671875 -182.617188 C 103.042969 -180.007812 103.558594 -177.003906 104.222656 -173.597656 C 104.902344 -170.101562 105.617188 -166.660156 106.371094 -163.273438 L 127.902344 -72.5625 Z M 51.332031 -72.5625 "/></g></g><g style="fill:#ffffff;fill-opacity:1;"><g transform="translate(195.437927, 294.104388)"><path style="stroke:none" d="M 23.9375 -226.660156 L 171.007812 -226.660156 L 171.007812 -169.808594 L 61.042969 -169.808594 L 61.042969 -181.027344 L 72.261719 -181.027344 L 72.261719 -125.671875 L 61.042969 -125.671875 L 61.042969 -136.894531 L 163.226562 -136.894531 L 163.226562 -80.042969 L 61.640625 -80.042969 L 61.640625 -91.261719 L 72.859375 -91.261719 L 72.859375 11.222656 L 12.714844 11.222656 L 12.714844 -226.660156 Z M 23.9375 -204.21875 L 23.9375 -215.441406 L 35.160156 -215.441406 L 35.160156 0 L 23.9375 0 L 23.9375 -11.222656 L 61.640625 -11.222656 L 61.640625 0 L 50.417969 0 L 50.417969 -102.484375 L 152.003906 -102.484375 L 152.003906 -91.261719 L 140.78125 -91.261719 L 140.78125 -125.671875 L 152.003906 -125.671875 L 152.003906 -114.453125 L 49.820312 -114.453125 L 49.820312 -192.25 L 159.785156 -192.25 L 159.785156 -181.027344 L 148.5625 -181.027344 L 148.5625 -215.441406 L 159.785156 -215.441406 L 159.785156 -204.21875 Z M 23.9375 -204.21875 "/></g></g><g style="fill:#000000;fill-opacity:1;"><g transform="translate(15.911486, 294.104388)"><path style="stroke:none" d="M 7.1875 0 L 65.234375 -215.4375 L 115.796875 -215.4375 L 172.34375 0 L 133.75 0 L 120.890625 -54.15625 L 58.34375 -54.15625 L 45.484375 0 Z M 65.53125 -83.78125 L 113.703125 -83.78125 L 95.453125 -160.6875 C 94.648438 -164.269531 93.898438 -167.859375 93.203125 -171.453125 C 92.503906 -175.046875 91.957031 -178.238281 91.5625 -181.03125 C 91.164062 -184.21875 90.765625 -187.410156 90.359375 -190.609375 L 88.875 -190.609375 C 88.46875 -187.410156 88.066406 -184.21875 87.671875 -181.03125 C 87.273438 -178.238281 86.773438 -175.046875 86.171875 -171.453125 C 85.578125 -167.859375 84.78125 -164.269531 83.78125 -160.6875 Z M 65.53125 -83.78125 "/></g></g><g style="fill:#000000;fill-opacity:1;"><g transform="translate(195.437927, 294.104388)"><path style="stroke:none" d="M 23.9375 -215.4375 L 159.78125 -215.4375 L 159.78125 -181.03125 L 61.046875 -181.03125 L 61.046875 -125.671875 L 152 -125.671875 L 152 -91.265625 L 61.640625 -91.265625 L 61.640625 0 L 23.9375 0 Z M 23.9375 -215.4375 "/></g></g></g></svg>